<?xml version="1.0" encoding="UTF-8"?>
<svg version="1.1" viewBox="0 0 2048 2048" width="1280" height="1280" xmlns="http://www.w3.org/2000/svg">
<path transform="translate(869,525)" d="m0 0h38l44 5 36 7 28 8 29 10 24 10 16 8 21 11 18 11 22 15 12 9 16 13 14 12 30 30 7 8 11 13 14 19 11 16 12 19 12 22 11 22 13 32 9 28 4 16v3l29-9 33-8 32-6 33-4 15-1h69l24 2 31 4 36 7 30 8 36 12 25 10 24 11 22 11 24 14 22 14 18 13 13 10 17 14 11 9 9 9 2 1v2l4 2 16 16 7 8 12 13 9 11 11 14 10 13 18 27 11 18 16 29 10 21 9 21 10 27 10 32 8 33 6 33 5 33v95l-4 26-5 30-6 28-8 30-11 32-9 22-9 20-8 16-11 21-12 20-14 21-10 14-10 13-14 17-9 10-7 8-11 11-3 4h-2l-1 3-8 7-7 7-8 7-14 12-17 13-19 14-20 13-15 9-18 10-23 12-27 12-29 11-32 10-37 9-34 6-38 4-23 1h-638l-247-1-22-2-24-4-25-6-26-8-27-11-24-12-20-12-16-11-13-10-13-11-12-11-10-9-11-12-11-13-15-20-10-15-12-21-8-16-9-20-8-22-8-29-5-27-3-23-1-17v-31l3-31 4-24 7-28 9-27 10-24 10-19 12-21 14-20 14-18 14-15 7-8 7-7 8-7 10-9 17-13 17-12 22-13 15-8 16-7 3-1-2-5-12-17-11-17-11-19-12-23-9-20-10-26-8-25-7-28-5-27-3-23-2-26v-43l3-35 6-36 6-25 8-27 10-27 9-21 8-16 12-22 12-19 14-20 10-13 9-11 3-4h2l2-4 11-12 24-24 11-9 9-8 13-10 17-12 23-15 24-13 16-8 20-9 24-9 22-7 32-8 35-6 32-3z" fill="#6AA8FD"/>
<path transform="translate(869,525)" d="m0 0h38l44 5 36 7 28 8 29 10 24 10 16 8 21 11 18 11 22 15 12 9 16 13 14 12 30 30 7 8 11 13 14 19 11 16 12 19 12 22 11 22 13 32 9 28 4 16-1 3-27 11-24 10-27 13-23 13-18 11-10 7-13 9-16 12-16 13-7 6h-2l-2 4-8 7-5 5h-2l-2 4h-2l-2 4h-2l-2 4h-2v2l-13 10-13 2-31 2-27 3-31 6-28 7-23 7-24 9-20 9-17 8-13 8-17 10-17 11-17 12-14 11-14 12-12 11-10 9-1 2h-2l-2 4-9 9-7 8-11 13-9 12-12 17-8 11-4 3-25-1h-50l-25 3-24 4-25 6-34 11h-3l-14-20-11-17-11-19-12-23-9-20-10-26-8-25-7-28-5-27-3-23-2-26v-43l3-35 6-36 6-25 8-27 10-27 9-21 8-16 12-22 12-19 14-20 10-13 9-11 3-4h2l2-4 11-12 24-24 11-9 9-8 13-10 17-12 23-15 24-13 16-8 20-9 24-9 22-7 32-8 35-6 32-3z" fill="#FDE054"/>
<path transform="translate(868,1077)" d="m0 0 2 1-2 2h-3 4l9-1 1 1 1 127v560l-1 176h13v1l-262-1-22-2-24-4-25-6-26-8-27-11-24-12-20-12-16-11-13-10-13-11-12-11-10-9-11-12-11-13-15-20-10-15-12-21-8-16-9-20-8-22-8-29-5-27-3-23-1-17v-31l3-31 4-24 7-28 9-27 10-24 10-19 12-21 14-20 14-18 14-15 7-8 7-7 8-7 10-9 17-13 17-12 22-13 15-8 16-7 3-1 3-3 34-11 29-7 25-4 20-2h50l25 1 5-4 13-19 12-16 8-10 11-12 7-8 6-7h2l2-4 15-14 10-9 11-9 13-10 17-12 22-14z" fill="#7ED7FC"/>
<path transform="translate(880,525)" d="m0 0h27l44 5 36 7 28 8 29 10 24 10 16 8 21 11 18 11 22 15 12 9 16 13 14 12 30 30 7 8 11 13 14 19 11 16 12 19 12 22 11 22 13 32 9 28 4 16-1 3-27 11-24 10-27 13-23 13-18 11-10 7-13 9-16 12-16 13-7 6h-2l-2 4-8 7-5 5h-2l-2 4h-2l-2 4h-2l-2 4h-2v2l-13 10-13 2-31 2-27 3-31 6-28 7-23 7-24 9-20 9-14 7h-5l-1-4v-358l1-109-1-72z" fill="#FBBE33"/>
<path transform="translate(872,104)" d="m0 0h17l12 3 13 7 12 11 7 11 5 12 2 14v197l-1 18-6 16-7 11-8 8-11 7-10 4-10 2h-13l-14-3-16-8-10-9-7-10-5-11-3-12-1-56v-71l1-88 3-13 6-12 7-9 10-9 14-7z" fill="#FBBE33"/>
<path transform="translate(292,344)" d="m0 0h15l14 3 13 7 14 12 133 133 7 8 6 9 5 11 3 12v13l-4 16-7 13-9 10-10 7-12 5-14 3h-9l-14-3-9-4-10-6-151-151-7-11-4-10-2-9v-15l4-16 8-14 2-3h2l2-4 11-8 13-6z" fill="#FDE054"/>
<path transform="translate(57,923)" d="m0 0h204l16 2 12 5 10 7 9 9 7 11 5 15 1 7-1 16-5 14-6 10-9 10-10 7-13 5-10 2h-216l-12-3-13-7-10-9-6-7-7-14-3-8v-24l6-15 8-12 8-8 10-6 12-5z" fill="#FEE155"/>
<path transform="translate(1451,344)" d="m0 0h13l12 2 16 8 10 9 6 7 7 14 3 11v17l-3 12-6 12-7 9-6 7-6 5-116 116-5 6-8 7-7 7-10 6-9 4-15 3h-8l-15-3-16-8-10-9-7-10-5-11-3-14v-10l3-14 4-9 5-8 9-10 129-129 5-6 8-7 10-7 12-5z" fill="#FBBE33"/>
<path transform="translate(872,104)" d="m0 0h7v269l-1 17v11l-1 10-2 4 1 9h6v1h-8l-14-3-16-8-10-9-7-10-5-11-3-12-1-56v-71l1-88 3-13 6-12 7-9 10-9 14-7z" fill="#FDE054"/>
<path transform="translate(193,1039)" d="m0 0h26l49 2-1 2h-206l2-2 41-1z" fill="#FBBE33"/>
<path transform="translate(806,1121)" d="m0 0 2 1-8 10-2 2h-6l6-7z" fill="#6AA8FE"/>
<path transform="translate(825,1106)" d="m0 0h2l-1 3-7 6-5 1 4-5z" fill="#6AA8FE"/>
<path transform="translate(838,1097)" d="m0 0 2 1-3 5-5 1v-3z" fill="#6AA8FE"/>
</svg>
