<?xml version="1.0" encoding="UTF-8"?>
<svg version="1.1" viewBox="0 0 2048 2048" width="1280" height="1280" xmlns="http://www.w3.org/2000/svg">
<path transform="translate(719,420)" d="m0 0h38l26 2 35 5 27 6 28 8 30 11 24 11 25 13 23 14 17 12 13 10 10 8 15 13 7 7 8 7 14 15 12 14 12 15 12 17 10 15 5 8 6 1 25 3 24 5 18 6 2-6 9-17 12-19 12-17 11-14 12-13 9-10 16-15 11-9 13-10 24-16 21-12 21-10 26-10 24-7 27-6 21-3 24-2h30l25 2 32 5 27 7 24 8 26 11 25 13 19 12 18 13 11 9 14 12 21 21 9 11 12 15 12 17 13 22 11 21 10 24 9 27 6 24 4 23 3 31v34l-2 24-4 26 26 9 21 9 21 11 24 16 16 13 11 9 20 20 9 11 10 13 14 21 10 18 10 21 9 25 6 21 6 30 2 13v51l-6 35-7 28-9 25-12 25-8 15-14 21-10 13-12 14-23 23-14 11-12 9-17 11-24 13-26 11-25 8-22 5-19 3-19 2h-25l-10-3-9-6-9-10-5-13v-8l-80 1 10 8 12 11 11 11 9 11 12 15 10 15 10 17 8 16 9 21 8 24 6 25 4 27 1 12v36l-3 27-5 25-8 28-9 22-9 19-10 17-10 15-9 12-11 13-9 10-13 13h-2v2l-11 9-17 13-22 14-23 12-25 10-18 6-25 6-27 4-10 1-25 1-974-1-29-3-29-6-25-7-22-8-18-8-22-11-23-14-18-13-17-14-13-12-17-17-7-8-13-16-11-16-12-19-10-18-10-22-8-21-9-31-6-31-3-27v-49l4-33 6-28 8-27 11-28 8-16 10-19 7-11 8-12 12-16 9-11 10-11 6-7h2l2-4 8-7 12-11 14-11 17-12 19-12 29-15 27-11 26-8 31-7 32-4h63l-10-21-11-29-6 1-5 1h-14l-13-5-10-8-12-11-8-7-14-14-7-8-12-14-10-13-11-15-13-20-12-21-9-17-13-30-12-36-7-26-5-26-4-32-1-12v-52l3-30 5-30 7-29 8-26 8-21 11-25 14-27 16-26 11-15 9-12 11-13 9-11 7-7 5-6 8-7 10-10 11-9 8-7 13-10 17-12 19-12 16-9 21-11 25-11 28-10 29-8 29-6 29-4z" fill="#FDAE04"/>
<path transform="translate(1169,1019)" d="m0 0h32l30 3 27 6 30 10 29 14 21 13 13 10 14 12 23 23 13 17 7 10 11 18 8 15 10 25 6 19 6 27 3 27v34l-2 21-5 24-7 26-1 13 4 13 5 8 9 8 9 4 37 8 17 5 19 8 16 8 18 12 13 10 17 16 11 12 13 18 8 13 8 15 9 23 6 21 4 23 1 10v34l-4 27-6 22-10 25-10 19-8 12-9 12-11 13-14 14-11 9-17 12-17 10-23 10-19 6-23 5-17 2h-991l-26-3-27-6-26-9-20-9-17-9-24-16-11-9-10-9-8-7-7-7-7-8-12-15-10-15-9-15-8-16-7-16-6-17-6-22-4-23-2-23v-24l2-22 5-28 8-27 8-20 8-16 7-13 10-15 12-16 10-11 7-8 9-9 11-9 18-14 18-11 23-12 25-10 25-7 20-4 17-2 17-1h12l27 2 28 5 15 3h13l10-3 11-8 7-10 11-30 8-16 8-14 10-14 12-14 12-12 17-13 14-9 17-9 21-8 18-5 16-3 10-1h30l23 3 20 5 17 6 28 13 7 2h12l13-4 10-8 7-10 12-22 10-15 9-12 11-13 21-21 11-9 16-12 20-12 17-9 20-8 21-7 27-6z" fill="#81CFF9"/>
<path transform="translate(1478,450)" d="m0 0h30l25 2 32 5 27 7 24 8 26 11 25 13 19 12 18 13 11 9 14 12 21 21 9 11 12 15 12 17 13 22 11 21 10 24 9 27 6 24 4 23 3 31v34l-2 24-4 26 26 9 21 9 21 11 24 16 16 13 11 9 20 20 9 11 10 13 14 21 10 18 10 21 9 25 6 21 6 30 2 13v51l-6 35-7 28-9 25-12 25-8 15-14 21-10 13-12 14-23 23-14 11-12 9-17 11-24 13-26 11-25 8-22 5-19 3-19 2h-25l-10-3-9-6-9-10-5-13v-8h-81l-19-14-25-15-22-11-37-14-1-5 3-19 2-19 1-28-2-32-5-32-6-25-6-19-8-22-16-33-12-20-14-20-11-14-10-11-7-8-15-15-11-9-9-8-14-10-17-11-17-10-24-12-20-8-30-10-27-6-27-4-11-1h-51l-29 3-13 2v-7l4-18 3-17 1-10 1-1 13-2 12-6 9-9 5-11 2-15-1-26-3-28-5-29-7-29-9-29-11-28-16-33-8-14 4-1 20 2 31 6 18 6 2-6 9-17 12-19 12-17 11-14 12-13 9-10 16-15 11-9 13-10 24-16 21-12 21-10 26-10 24-7 27-6 21-3z" fill="#A3DCF9"/>
<path transform="translate(1162,939)" d="m0 0h51l33 4 24 5 27 8 19 7 20 9 20 10 26 16 19 14 15 13 12 11 14 14 7 8 13 16 14 20 12 20 12 23 10 23 9 27 6 24 5 29 2 19 1 30-2 30-3 23-1 8 8 3 29 11 26 13 24 15 13 10 8 7 14 12 15 15 9 11 12 15 10 15 10 17 8 16 9 21 8 24 6 25 4 27 1 12v36l-3 27-5 25-8 28-9 22-9 19-10 17-10 15-9 12-11 13-9 10-13 13h-2v2l-11 9-17 13-22 14-23 12-25 10-18 6-25 6-27 4-10 1-25 1-974-1-29-3-29-6-25-7-22-8-18-8-22-11-23-14-18-13-17-14-13-12-17-17-7-8-13-16-11-16-12-19-10-18-10-22-8-21-9-31-6-31-3-27v-49l4-33 6-28 8-27 11-28 8-16 10-19 7-11 8-12 12-16 9-11 10-11 6-7h2l2-4 8-7 12-11 14-11 17-12 19-12 29-15 27-11 26-8 31-7 32-4h58l26 3 8-16 12-22 11-16 9-11 9-10 7-8 7-7 8-7 12-10 17-12 17-10 19-10 20-8 18-6 25-6 26-4 13-1h22l30 3 26 5 24 7 10 4 2-5 8-12 9-12 12-14 7-8 5-5 7-8 8-7 11-10 17-13 17-12 22-13 16-8 17-8 28-10 29-8 29-5zm7 80-26 3-27 6-27 9-24 11-21 12-18 13-11 9-12 11-17 17-11 14-11 16-9 15-10 18-7 8-7 5-13 4h-12l-12-4-25-12-22-7-19-4-17-2h-30l-21 3-20 5-19 7-19 9-14 9-12 9-11 9-13 13-11 14-10 15-9 16-8 20-8 21-7 9-10 7-10 3h-13l-36-7-16-2-18-1h-12l-26 2-24 4-26 7-21 8-25 12-20 12-21 16-15 13-11 11-9 11-10 12-12 18-8 14-8 16-8 19-8 26-5 25-2 14-1 15v24l2 23 5 27 7 25 9 22 8 17 14 23 12 16 9 11 14 15 12 11 11 9 14 10 21 13 25 12 25 9 18 5 21 4 20 2h991l23-3 24-6 22-8 16-8 16-9 16-12 14-12 14-14 11-14 11-16 10-18 8-18 7-21 5-23 2-16v-34l-3-23-5-22-7-20-9-20-8-14-12-17-8-10-12-13-15-14-18-13-15-9-16-8-21-8-24-6-24-5-12-6-8-8-5-11-2-8 1-13 9-34 4-23 1-14v-34l-3-27-6-27-10-30-8-18-11-20-10-15-10-13-9-11-23-23-11-9-13-10-25-15-25-12-30-10-27-6-30-3z" fill="#010000"/>
<path transform="translate(1478,450)" d="m0 0h30l25 2 32 5 27 7 24 8 26 11 25 13 19 12 18 13 11 9 14 12 21 21 9 11 12 15 12 17 13 22 11 21 10 24 9 27 6 24 4 23 3 31v34l-2 24-4 26 26 9 21 9 21 11 24 16 16 13 11 9 20 20 9 11 10 13 14 21 10 18 10 21 9 25 6 21 6 30 2 13v51l-6 35-7 28-9 25-12 25-8 15-14 21-10 13-12 14-23 23-14 11-12 9-17 11-24 13-26 11-25 8-22 5-19 3-19 2h-25l-10-3-9-6-9-10-5-13-1-10 3-12 5-9 7-8 10-6 12-3 36-3 21-4 17-5 20-8 16-8 18-11 13-10 13-12 14-14 13-17 10-16 10-19 8-20 6-21 4-24 1-15v-20l-2-22-4-20-7-23-6-15-10-19-9-14-9-12-12-14-12-12-11-9-18-13-18-10-18-8-21-7-28-6-15-4-10-6-8-9-4-8-2-7v-11l11-45 3-20 1-11v-32l-3-26-5-25-6-20-10-25-10-20-12-19-8-11-13-16-13-14-8-7-14-12-17-12-15-9-19-10-23-9-23-7-25-5-17-2-27-1-22 1-26 4-28 7-24 9-23 11-20 12-15 11-13 11-8 7-18 18-10 13-12 17-10 17-7 14-8 10-9 6-6 3-5 1h-15l-11-4-9-6-6-7-5-10-1-4v-17l5-13 10-19 12-19 12-17 11-14 12-13 9-10 16-15 11-9 13-10 24-16 21-12 21-10 26-10 24-7 27-6 21-3z" fill="#010000"/>
<path transform="translate(719,420)" d="m0 0h38l26 2 35 5 27 6 28 8 30 11 24 11 25 13 23 14 17 12 13 10 10 8 15 13 7 7 8 7 14 15 12 14 12 15 12 17 10 15 13 22 13 26 10 24 10 28 7 25 7 34 4 30 1 11 1 29-2 12-6 12-9 9-12 6-16 2-8-2-10-5-10-9-5-9-2-7-2-32-4-33-6-29-7-25-11-29-14-29-12-20-13-19-14-18-10-11-7-8-13-13-8-7-13-11-16-12-20-13-16-9-17-9-29-12-25-8-30-7-36-5-15-1h-34l-29 3-28 5-23 6-24 8-24 10-16 8-15 8-19 12-14 10-14 11-10 9-8 7-18 18-9 11-10 12-13 19-10 16-14 26-9 21-9 25-7 26-6 31-3 29v38l4 36 5 26 8 29 8 22 10 23 8 15 6 11 11 18 12 16 7 9 12 14 12 13 13 12 8 7 7 7 6 10 3 11v11l-4 10-6 9-4 5-6 4h-2v2l-12 3h-14l-13-5-10-8-12-11-8-7-14-14-7-8-12-14-10-13-11-15-13-20-12-21-9-17-13-30-12-36-7-26-5-26-4-32-1-12v-52l3-30 5-30 7-29 8-26 8-21 11-25 14-27 16-26 11-15 9-12 11-13 9-11 7-7 5-6 8-7 10-10 11-9 8-7 13-10 17-12 19-12 16-9 21-11 25-11 28-10 29-8 29-6 29-4z" fill="#010000"/>
<path transform="translate(246,1094)" d="m0 0h8l9 2 11 6 8 8 6 12 2 8-1 13-4 11-7 9-8 6-26 15-24 14-52 30-18 10-10 3h-14l-10-3-9-6-8-9-5-12-1-4v-11l4-13 6-8 9-8 26-15 24-14 28-16 24-14 16-9 10-4z" fill="#010000"/>
<path transform="translate(127,463)" d="m0 0h12l13 4 24 14 23 13 17 10 28 16 27 16 10 9 6 10 2 7v17l-5 12-9 10-9 6-10 3h-13l-10-3-20-11-24-14-52-30-24-14-9-7-6-9-4-9-1-4v-11l4-13 8-11 10-7 7-3z" fill="#010000"/>
<path transform="translate(381,208)" d="m0 0h15l10 3 9 6 8 9 10 17 12 21 30 52 14 24 6 13 1 4v14l-4 12-6 8-8 7-8 4-11 2h-8l-11-3-8-5-5-4-7-10-10-17-16-28-30-52-10-17-4-10-1-4v-13l4-12 6-8 9-8 9-4z" fill="#010000"/>
<path transform="translate(733,114)" d="m0 0h10l13 4 10 7 7 9 4 10 1 4v145l-2 9-5 9-8 9-6 4-8 3-6 1h-12l-10-3-9-6-8-9-4-8-2-8v-146l4-12 7-10 9-7 9-4z" fill="#010000"/>
<path transform="translate(1081,208)" d="m0 0h11l12 3 11 8 6 7 5 11 1 4v14l-5 13-9 16-14 24-16 28-15 26-11 19-8 11-9 7-11 4-10 1-12-2-10-5-7-6-7-11-3-10v-11l4-13 10-18 14-24 16-28 14-24 15-26 10-11 10-5z" fill="#010000"/>
<path transform="translate(39,812)" d="m0 0h126l19 1 9 4 6 4 5 4 7 11 3 9v14l-4 11-6 9-9 8-11 4-6 1h-144l-13-4-9-7-6-7-6-12v-20l8-14 9-9 13-6z" fill="#010000"/>
<path transform="translate(517,1178)" d="m0 0 4 1 14 8 17 10 15 8-7 14-10 18-4 8-16-2-5-2-10-21-11-29 1-3 9-6z" fill="#A4DDFA"/>
<path transform="translate(1159,935)" d="m0 0h37l2 1 18 1 11 2 13 1 11 3v1l-12-1-26-3h-51l-22 2h-7l-1-3h13l7-2z" fill="#81CFF9"/>
<path transform="translate(535,1191)" d="m0 0 10 2 22 12-7 14-2 1-1-6h-2l-4-8-7-5-3-2 1-3h-5z" fill="#90D4F9"/>
<path transform="translate(1782,934)" d="m0 0 11 1 24 6 24 9 21 11 9 6-4 1-10-6-17-8-5-3-10-4-24-8-13-2-6-2z" fill="#81CFF9"/>
<path transform="translate(1161,761)" d="m0 0 2 3 4 21 5 37 1 26-2 14-2 2 1-17-1-24-3-28-5-29z" fill="#81CFF9"/>
<path transform="translate(1756,762)" d="m0 0h1l2 19v32l-3 25h-1v-15l1-10z" fill="#81CFF9"/>
<path transform="translate(1582,546)" d="m0 0 6 1 23 10 17 9 3 3-6-1-14-7-19-9-10-4z" fill="#81CFF9"/>
<path transform="translate(1415,1024)" d="m0 0 4 1v2l4 2 7 6 6 7 8 8v2h2v2h2v2h2l-1 3-7-7-7-8-15-15z" fill="#81CFF9"/>
<path transform="translate(1187,689)" d="m0 0 8 6 12 6 4 1h20l-4 2-1 1h-11l-16-4-10-7z" fill="#81CFF9"/>
<path transform="translate(1177,645)" d="m0 0 6 1-3 9-1 17-2-3-1-8 2-13z" fill="#81CFF9"/>
<path transform="translate(517,1178)" d="m0 0h2l5 6h-5l-7 2-2-1 5-5z" fill="#84D0F9"/>
<path transform="translate(1536,534)" d="m0 0 10 1 9 2v1h-10l-9-3z" fill="#82CFF9"/>
<path transform="translate(1555,538)" d="m0 0 8 1 7 2v1h-8l-7-2z" fill="#81CFF9"/>
</svg>
